<svg xmlns="http://www.w3.org/2000/svg" width="120" height="96" viewBox="0 0 120 96" fill="none">
  <path d="M60 10L102 34V62L60 86L18 62V34L60 10Z" fill="url(#g1)"/>
  <path d="M60 10L84 24L60 38L36 24L60 10Z" fill="#5A81D2"/>
  <path d="M102 34L84 24L60 38L78 50L102 34Z" fill="#7CB4E2"/>
  <path d="M102 62L78 50L60 58L84 74L102 62Z" fill="#2D98A5"/>
  <path d="M60 86L84 74L60 58L36 72L60 86Z" fill="#2D6C9A"/>
  <path d="M18 62L36 72L60 58L42 46L18 62Z" fill="#4C83D7"/>
  <path d="M18 34L42 46L60 38L36 24L18 34Z" fill="#2946A7"/>
  <defs>
    <linearGradient id="g1" x1="18" y1="10" x2="102" y2="86" gradientUnits="userSpaceOnUse">
      <stop stop-color="#2843A6"/>
      <stop offset="0.5" stop-color="#44B7D6"/>
      <stop offset="1" stop-color="#2A8B98"/>
    </linearGradient>
  </defs>
</svg>
